# ProBuilder 4.2.3
# https://unity3d.com/unity/features/worldbuilding/probuilder
# 6/6/2020 9:47:28 PM

mtllib ./Level2_Model.mtl
o Level2_Model

g Level2_Model
v -1 53.9 -1
v -1 53.9 -35.34844
v -43.22507 53.9 -46.2321
v -43.22507 53.9 -1
v -1 53.9 -108
v -43.22507 53.9 -108
v -1 1.1 -108
v -1 1.1 -35.34844
v -43.22507 1.1 -46.2321
v -43.22507 1.1 -108
v -1 1.1 -1
v -43.22507 1.1 -1
v -223.6252 53.89993 -46.2321
v -223.6253 53.89993 -1.000069
v -223.6253 1.100071 -1.000069
v -223.6252 1.100071 -46.2321
v -264.209 53.89986 -46.23203
v -264.209 53.89986 -1.000137
v -264.209 1.100142 -1.000137
v -264.209 1.100142 -46.23203
v -264.2089 1.100212 -394.2026
v -223.6252 1.100142 -394.2026
v -223.6252 53.89986 -394.2026
v -264.2089 53.89978 -394.2026
v -1 29.1 -108
v -43.22507 29.1 -108
v -1 29.1 -1
v -43.22507 29.1 -1
v -1 29.1 -35.34843
v -43.22507 29.1 -46.2321
v -223.6252 29.09998 -46.2321
v -223.6253 29.09998 -1.000076
v -264.209 29.09996 -1.000137
v -264.209 29.09996 -46.23203
v -223.6252 28.84358 -394.2026
v -264.209 28.84356 -394.2026

vt -20.00128 -49.15
vt -20.00128 -52.58484
vt -24.22379 -53.67321
vt -24.22379 -49.15
vt -20.00128 -59.85
vt -24.22379 -59.85
vt 20.00128 -59.85
vt 20.00128 -52.58484
vt 24.22379 -53.67321
vt 24.22379 -59.85
vt 20.00128 -49.15
vt 24.22379 -49.15
vt -124.4052 -25.67467
vt -124.4052 -21.15146
vt -142.4452 -25.67467
vt -142.4452 -21.15146
vt 124.4052 -20.14354
vt 124.4052 -24.66674
vt 142.4452 -20.14354
vt 142.4452 -24.66674
vt -241.8879 -25.66958
vt -241.8879 -21.14637
vt -245.9463 -25.66957
vt -245.9463 -21.14638
vt 241.8879 -21.1442
vt 241.8879 -25.6674
vt 245.9463 -21.1442
vt 245.9463 -25.66739
vt 245.9463 -202.8188
vt 241.8879 -202.8188
vt 245.9463 -237.6158
vt 241.8879 -237.6158
vt -241.8878 -202.8188
vt -245.9462 -202.8188
vt -241.8878 -237.6158
vt -245.9462 -237.6158
vt -20.00128 27.66
vt -20.00128 24.86
vt -24.22379 24.86
vt -24.22379 27.66
vt 20.00128 24.86
vt 20.00128 27.66
vt 24.22379 27.66
vt 24.22379 24.86
vt -49.15 24.86
vt -52.58484 24.86
vt -52.58484 27.66
vt -49.15 27.66
vt -59.85 24.86
vt -59.85 27.66
vt 80.20444 24.86
vt 74.02766 24.86
vt 74.02766 27.66
vt 80.20444 27.66
vt -124.4051 27.66
vt -124.4051 24.86
vt -142.4452 24.86001
vt -142.4452 27.66
vt 124.4052 24.86
vt 124.4052 27.66
vt 142.4452 27.66
vt 142.4452 24.86001
vt 241.888 24.86001
vt 241.888 27.66
vt 245.9464 27.66
vt 245.9464 24.86001
vt 25.66386 27.65985
vt 25.66386 24.85987
vt 21.14067 24.85987
vt 21.14067 27.65985
vt -202.8188 27.66
vt -202.8188 24.86001
vt -237.6159 24.86001
vt -237.6159 27.63436
vt 202.8188 24.86016
vt 202.8188 27.66014
vt 237.6158 27.6345
vt 237.6158 24.86017
vt -241.8879 27.63433
vt -241.8879 24.85999
vt -245.9463 24.86
vt -245.9463 27.63433
vt -24.22379 30.14
vt -20.00128 30.14
vt 20.00128 30.14
vt 24.22379 30.14
vt -52.58484 30.14
vt -49.15 30.14
vt -59.85 30.14
vt 74.02766 30.14
vt 80.20444 30.14
vt -142.4452 30.13999
vt -124.4051 30.14
vt 124.4052 30.14
vt 142.4452 30.14
vt 241.888 30.13999
vt 245.9464 30.13999
vt 21.14067 30.13984
vt 25.66386 30.13984
vt -237.6159 30.13999
vt -202.8188 30.13999
vt 202.8188 30.14013
vt 237.6158 30.14012
vt -245.9463 30.13995
vt -241.8879 30.13996

vn 0 -1 0
vn 0 1 0
vn 0 0 1
vn 0 0 -1
vn -1 0 0
vn 1 0 0

usemtl Grid
f 2/2/1 1/1/1 4/4/1 3/3/1
f 5/5/1 2/2/1 3/3/1 6/6/1
f 9/9/2 8/8/2 7/7/2 10/10/2
f 12/12/2 11/11/2 8/8/2 9/9/2
f 14/16/1 13/15/1 3/13/1 4/14/1
f 16/20/2 15/19/2 12/17/2 9/18/2
f 18/24/1 17/23/1 13/21/1 14/22/1
f 20/28/2 19/27/2 15/25/2 16/26/2
f 22/32/2 21/31/2 20/29/2 16/30/2
f 24/36/1 23/35/1 13/33/1 17/34/1
f 25/37/3 26/40/3 10/39/3 7/38/3
f 12/44/4 28/43/4 27/42/4 11/41/4
f 27/48/5 29/47/5 8/46/5 11/45/5
f 29/47/5 25/50/5 7/49/5 8/46/5
f 10/51/6 26/54/6 30/53/6 9/52/6
f 30/55/3 31/58/3 16/57/3 9/56/3
f 12/59/4 15/62/4 32/61/4 28/60/4
f 15/63/4 19/66/4 33/65/4 32/64/4
f 20/68/6 34/67/6 33/70/6 19/69/6
f 31/71/5 35/74/5 22/73/5 16/72/5
f 20/75/6 21/78/6 36/77/6 34/76/6
f 35/79/3 36/82/3 21/81/3 22/80/3
f 5/84/3 6/83/3 26/40/3 25/37/3
f 28/43/4 4/86/4 1/85/4 27/42/4
f 2/87/5 29/47/5 27/48/5 1/88/5
f 5/89/5 25/50/5 29/47/5 2/87/5
f 26/54/6 6/91/6 3/90/6 30/53/6
f 3/93/3 13/92/3 31/58/3 30/55/3
f 32/61/4 14/95/4 4/94/4 28/60/4
f 33/65/4 18/97/4 14/96/4 32/64/4
f 18/98/6 33/70/6 34/67/6 17/99/6
f 13/101/5 23/100/5 35/74/5 31/71/5
f 34/76/6 36/77/6 24/103/6 17/102/6
f 23/105/3 24/104/3 36/82/3 35/79/3

